<svg width="40" height="40" viewBox="0 0 40 40" fill="none" xmlns="http://www.w3.org/2000/svg">
<path fill-rule="evenodd" clip-rule="evenodd" d="M27.2036 30.8517C24.3739 32.9179 20.8842 34.1379 17.1089 34.1379C7.65991 34.1379 0 26.496 0 17.069C0 7.64205 7.65991 0 17.1089 0C26.5579 0 34.2177 7.64205 34.2177 17.069C34.2177 20.8831 32.9638 24.4051 30.8447 27.247C30.864 27.2649 30.8827 27.2831 30.9015 27.3018L39.2482 35.629C40.2506 36.6291 40.2506 38.2501 39.2482 39.2501C38.246 40.25 36.6213 40.25 35.6189 39.2501L27.2721 30.9226C27.2488 30.8993 27.226 30.8758 27.2036 30.8517ZM29.085 17.069C29.085 23.6679 23.7232 29.0172 17.1089 29.0172C10.4946 29.0172 5.13266 23.6679 5.13266 17.069C5.13266 10.4701 10.4946 5.1207 17.1089 5.1207C23.7232 5.1207 29.085 10.4701 29.085 17.069Z" fill="#006341"/>
</svg>
